<mxfile host="app.diagrams.net" modified="2023-05-17T19:58:28.294Z" agent="Mozilla/5.0 (Windows NT 10.0; Win64; x64; rv:109.0) Gecko/20100101 Firefox/113.0" version="21.3.2" etag="coonmdb7_AcMn0vSxHtW" type="github">
  <diagram name="Page-1" id="T7b5xMkNIE6UImxESQSP">
    <mxGraphModel>
      <root>
        <mxCell id="0" />
        <mxCell id="1" parent="0" />
      </root>
    </mxGraphModel>
  </diagram>
</mxfile>
